USFL
nRows=240
nColumns=2
inDegrees=yes
endheader
time	tib_ant_r	
2.29536	 59.080361	
2.32863	 59.077401	
2.3619	 59.039792	
2.39516	 59.058911	
2.42843	 59.037493	
2.46169	 59.043879	
2.49496	 59.033774	
2.52823	 59.026563	
2.56149	 58.986465	
2.59476	 58.969554	
2.62802	 58.954483	
2.66129	 58.959339	
2.69456	 58.998498	
2.72782	 59.003985	
2.76109	 58.993783	
2.79435	 59.024529	
2.82762	 59.012464	
2.86089	 59.007579	
2.89415	 59.034099	
2.92742	 59.034870	
2.96069	 59.033736	
2.99395	 59.016410	
3.02722	 59.022397	
3.06048	 59.008400	
3.09375	 58.967360	
3.12702	 58.984781	
3.16028	 59.022370	
3.19355	 59.011013	
3.22681	 59.024996	
3.26008	 59.001572	
3.29335	 59.035695	
3.32661	 59.079029	
3.35988	 59.095117	
3.39315	 59.125359	
3.42641	 59.184355	
3.45968	 59.198370	
3.49294	 59.146224	
3.52621	 59.077209	
3.55948	 59.068504	
3.59274	 59.110309	
3.62601	 59.090667	
3.65927	 59.043994	
3.69254	 59.017152	
3.72581	 59.063877	
3.75907	 59.050502	
3.79234	 59.052387	
3.8256	 59.019106	
3.85887	 59.031163	
3.89214	 59.014982	
3.9254	 58.980856	
3.95867	 58.977336	
3.99194	 58.988867	
4.0252	 59.012484	
4.05847	 59.061070	
4.09173	 58.979113	
4.125	 58.967408	
4.15827	 58.986916	
4.19153	 59.012143	
4.2248	 59.041000	
4.25806	 59.046790	
4.29133	 59.061460	
4.3246	 59.062162	
4.35786	 59.051357	
4.39113	 59.074862	
4.4244	 59.066559	
4.45766	 59.063278	
4.49093	 59.046185	
4.52419	 59.126020	
4.55746	 58.796182	
4.59073	 58.532532	
4.62399	 57.837137	
4.65726	 57.446086	
4.69052	 57.012142	
4.72379	 56.526409	
4.75706	 55.793447	
4.79032	 55.259765	
4.82359	 55.300809	
4.85685	 55.214301	
4.89012	 54.726182	
4.92339	 54.300336	
4.95665	 53.982307	
4.98992	 53.751720	
5.02319	 53.408404	
5.05645	 53.132861	
5.08972	 53.049684	
5.12298	 52.873094	
5.15625	 52.688946	
5.18952	 52.256914	
5.22278	 52.483761	
5.25605	 52.379619	
5.28931	 52.328461	
5.32258	 52.338256	
5.35585	 52.375722	
5.38911	 52.258100	
5.42238	 51.830059	
5.45565	 51.695492	
5.48891	 51.454296	
5.52218	 51.197831	
5.55544	 50.981521	
5.58871	 50.918303	
5.62198	 50.595615	
5.65524	 50.256806	
5.68851	 49.640863	
5.72177	 49.219648	
5.75504	 48.983544	
5.78831	 48.841510	
5.82157	 48.640168	
5.85484	 48.554443	
5.8881	 48.389861	
5.92137	 48.255409	
5.95464	 48.205812	
5.9879	 48.068547	
6.02117	 48.106497	
6.05444	 48.137437	
6.0877	 48.121798	
6.12097	 48.093135	
6.15423	 48.198212	
6.1875	 48.187596	
6.22077	 48.292684	
6.25403	 48.601849	
6.2873	 48.768657	
6.32056	 49.007774	
6.35383	 49.155699	
6.3871	 49.371283	
6.42036	 49.471506	
6.45363	 49.541797	
6.4869	 49.680645	
6.52016	 49.820219	
6.55343	 49.872378	
6.58669	 49.958663	
6.61996	 50.083783	
6.65323	 50.139959	
6.68649	 50.230730	
6.71976	 50.323129	
6.75302	 50.379776	
6.78629	 50.423825	
6.81956	 50.357365	
6.85282	 50.313074	
6.88609	 50.186437	
6.91935	 50.013258	
6.95262	 49.780951	
6.98589	 49.858981	
7.01915	 49.913441	
7.05242	 49.927211	
7.08569	 49.977683	
7.11895	 49.906377	
7.15222	 49.931925	
7.18548	 50.019500	
7.21875	 49.955064	
7.25202	 49.844704	
7.28528	 49.703642	
7.31855	 49.727305	
7.35181	 49.773713	
7.38508	 49.905928	
7.41835	 49.936787	
7.45161	 49.952458	
7.48488	 49.993813	
7.51815	 50.070622	
7.55141	 50.122221	
7.58468	 50.160340	
7.61794	 50.206408	
7.65121	 50.217844	
7.68448	 50.230452	
7.71774	 50.267086	
7.75101	 50.353912	
7.78427	 50.376991	
7.81754	 50.368455	
7.85081	 50.384788	
7.88407	 50.408750	
7.91734	 50.395869	
7.9506	 50.423988	
7.98387	 50.433292	
8.01714	 50.438812	
8.0504	 50.452779	
8.08367	 50.427630	
8.11694	 50.407658	
8.1502	 50.403275	
8.18347	 50.437912	
8.21673	 50.400640	
8.25	 50.396939	
8.28327	 50.357139	
8.31653	 50.328586	
8.3498	 50.338746	
8.38306	 50.226719	
8.41633	 50.223601	
8.4496	 50.261155	
8.48286	 50.248548	
8.51613	 50.203905	
8.5494	 50.195369	
8.58266	 50.250831	
8.61593	 50.234982	
8.64919	 50.219276	
8.68246	 50.226937	
8.71573	 50.195284	
8.74899	 50.231742	
8.78226	 50.205430	
8.81552	 50.165541	
8.84879	 50.224733	
8.88206	 50.261267	
8.91532	 50.286831	
8.94859	 50.280501	
8.98185	 50.258055	
9.01512	 50.269100	
9.04839	 50.267057	
9.08165	 50.280475	
9.11492	 50.256959	
9.14819	 50.328035	
9.18145	 50.338573	
9.21472	 50.313384	
9.24798	 50.374674	
9.28125	 50.429287	
9.31452	 50.715451	
9.34778	 51.094565	
9.38105	 51.250913	
9.41431	 51.696943	
9.44758	 52.206095	
9.48085	 52.016295	
9.51411	 52.201241	
9.54738	 52.639649	
9.58065	 53.080592	
9.61391	 53.144941	
9.64718	 53.406275	
9.68044	 53.383095	
9.71371	 53.446542	
9.74698	 53.565198	
9.78024	 53.739624	
9.81351	 53.566122	
9.84677	 53.485816	
9.88004	 53.485511	
9.91331	 53.455977	
9.94657	 53.406134	
9.97984	 53.392973	
10.0131	 53.343268	
10.0464	 53.345176	
10.0796	 53.373378	
10.1129	 53.352429	
10.1462	 53.390692	
10.1794	 53.380317	
10.2127	 53.343989	
10.246	 53.333550	
